<svg width="32" height="32" viewBox="0 0 32 32" fill="none" xmlns="http://www.w3.org/2000/svg">
<path d="M2.66797 4.57699C2.66797 3.52199 3.54464 2.66699 4.6263 2.66699H27.3763C28.458 2.66699 29.3346 3.52199 29.3346 4.57699V27.4237C29.3346 28.4787 28.458 29.3337 27.3763 29.3337H4.6263C3.54464 29.3337 2.66797 28.4787 2.66797 27.4237V4.57699ZM10.9063 24.9903V12.9487H6.90464V24.9903H10.9063ZM8.9063 11.3037C10.3013 11.3037 11.1696 10.3803 11.1696 9.22366C11.1446 8.04199 10.303 7.14366 8.93297 7.14366C7.56297 7.14366 6.66797 8.04366 6.66797 9.22366C6.66797 10.3803 7.5363 11.3037 8.87964 11.3037H8.9063ZM17.0863 24.9903V18.2653C17.0863 17.9053 17.113 17.5453 17.2196 17.2887C17.508 16.5703 18.1663 15.8253 19.273 15.8253C20.7213 15.8253 21.2996 16.9287 21.2996 18.5487V24.9903H25.3013V18.0837C25.3013 14.3837 23.328 12.6637 20.6946 12.6637C18.5713 12.6637 17.6196 13.8303 17.0863 14.652V14.6937H17.0596C17.0685 14.6797 17.0774 14.6659 17.0863 14.652V12.9487H13.0863C13.1363 14.0787 13.0863 24.9903 13.0863 24.9903H17.0863Z" fill="black"/>
</svg>
