<svg width="32" height="32" viewBox="0 0 32 32" fill="none" xmlns="http://www.w3.org/2000/svg">
<path d="M28.555 11.1672L16.555 3.16717C16.3907 3.05753 16.1975 2.99902 16 2.99902C15.8025 2.99902 15.6093 3.05753 15.445 3.16717L3.445 11.1672C3.30801 11.2586 3.19572 11.3824 3.11809 11.5276C3.04046 11.6728 2.99989 11.835 3 11.9997V24.9997C3 25.5301 3.21071 26.0388 3.58579 26.4139C3.96086 26.789 4.46957 26.9997 5 26.9997H27C27.5304 26.9997 28.0391 26.789 28.4142 26.4139C28.7893 26.0388 29 25.5301 29 24.9997V11.9997C29.0001 11.835 28.9595 11.6728 28.8819 11.5276C28.8043 11.3824 28.692 11.2586 28.555 11.1672ZM5 24.9997V13.9409L13.2375 19.8159C13.4071 19.9371 13.6103 20.0022 13.8188 20.0022H18.1812C18.3897 20.0022 18.5929 19.9371 18.7625 19.8159L27 13.9409V24.9997H5Z" fill="black"/>
</svg>
