<svg width="32" height="32" viewBox="0 0 32 32" fill="none" xmlns="http://www.w3.org/2000/svg">
<path d="M28.985 21.8847C28.7621 23.5785 27.9303 25.1333 26.6449 26.2586C25.3595 27.3839 23.7084 28.0028 22 27.9997C12.075 27.9997 4.00001 19.9247 4.00001 9.99975C3.99695 8.29136 4.61587 6.64028 5.74118 5.35487C6.86649 4.06946 8.42122 3.23763 10.115 3.01475C10.5433 2.96245 10.9771 3.05007 11.3515 3.26455C11.7259 3.47902 12.0209 3.80883 12.1925 4.20475L14.8325 10.0985V10.1135C14.9639 10.4166 15.0181 10.7474 14.9904 11.0766C14.9627 11.4057 14.8539 11.7229 14.6738 11.9997C14.6513 12.0335 14.6275 12.0647 14.6025 12.096L12 15.181C12.9363 17.0835 14.9263 19.056 16.8538 19.9947L19.8963 17.406C19.9261 17.3809 19.9574 17.3575 19.99 17.336C20.2666 17.1515 20.5849 17.0389 20.916 17.0083C21.2471 16.9778 21.5806 17.0302 21.8863 17.161L21.9025 17.1685L27.7913 19.8072C28.1879 19.9782 28.5185 20.273 28.7337 20.6474C28.9489 21.0219 29.037 21.456 28.985 21.8847Z" fill="black"/>
</svg>
